# xmcd CD database file
#
# Track frame offsets:
#	150
#	57583
#	88237
#	124414
#	159246
#	220224
#	269312
#
# Disc length: 4292 seconds
#
# Revision: 0
# Processed by: cddbd v1.5.1PL2 Copyright (c) Steve Scherf et al.
# Submitted via: CDex 1.51
#
DISCID=6610c207
DTITLE=Julien Petit Quartet - Here we are
DYEAR=2006
DGENRE=Jazz
TTITLE0=Deuxième Vie
TTITLE1=Little melonae
TTITLE2=Song for Djamila
TTITLE3=An english man in New York
TTITLE4=Caravan
TTITLE5=Mister P.C
TTITLE6=Here we go, les coulisses (vidéo)
EXTD=YEAR: 2006
EXTT0=
EXTT1=
EXTT2=
EXTT3=
EXTT4=
EXTT5=
EXTT6=
PLAYORDER=
